# xmcd
#
# Track frame offsets:
#	150
#	13342
#	34462
#	57450
#	72985
#	103312
#	133162
#	155455
#	175497
#	190685
#
# Disc length: 2842 seconds
# Revision: 30
# Processed by: cddbd v1.5.2PL0 Copyright (c) Steve Scherf et al.
# Submitted via: dBpowerAMP V12.0
#
DISCID=980b180a
DTITLE=John Lee Hooker - Mr. Lucky [dBP-LITE-FLAC@]
DYEAR=1991
DGENRE=Blues
TTITLE0=I Want to Hug You
TTITLE1=Mr Lucky (John Lee Hooker and the Robert Cray Band)
TTITLE2=Backstabbers (John Lee Hooker and Albert Collins)
TTITLE3=This is Hip (John Lee Hooker and Ry Cooder)
TTITLE4=I Cover the Waterfront (John Lee Hooker and Van Morrison)
TTITLE5=Highway 13 (John Lee Hooker and John Hammond)
TTITLE6=Stripped Me Naked (John Lee Hooker, Carlos Santana and Chester Thompson)
TTITLE7=Susie (John Lee Hooker and Johnny Winter)
TTITLE8=Crawlin' Kingsnake (John Lee Hooker and  Keith Richards)
TTITLE9=My Father was a Jockey (John Lee Hooker and John Hammond)
EXTD=
EXTT0=
EXTT1=
EXTT2=
EXTT3=
EXTT4=
EXTT5=
EXTT6=
EXTT7=
EXTT8=
EXTT9=
PLAYORDER=
